<mxfile host="app.diagrams.net" modified="2020-05-12T19:09:01.995Z" agent="5.0 (Windows NT 10.0; Win64; x64) AppleWebKit/537.36 (KHTML, like Gecko) Chrome/81.0.4044.138 Safari/537.36" etag="QFXzyapidSNwrJEjDHib" version="13.1.0" type="github">
  <diagram id="U-i134--3VNA6yCmA3Ya" name="Page-1">
    <mxGraphModel dx="782" dy="469" grid="1" gridSize="10" guides="1" tooltips="1" connect="1" arrows="1" fold="1" page="1" pageScale="1" pageWidth="827" pageHeight="1169" math="0" shadow="0">
      <root>
        <mxCell id="0" />
        <mxCell id="1" parent="0" />
        <mxCell id="1AK1kD9evbUtIjo_cuXa-1" value="" style="ellipse;html=1;shape=startState;fillColor=#000000;strokeColor=#ff0000;" vertex="1" parent="1">
          <mxGeometry x="384" y="10" width="30" height="30" as="geometry" />
        </mxCell>
        <mxCell id="1AK1kD9evbUtIjo_cuXa-2" value="" style="edgeStyle=orthogonalEdgeStyle;html=1;verticalAlign=bottom;endArrow=open;endSize=8;strokeColor=#ff0000;" edge="1" source="1AK1kD9evbUtIjo_cuXa-1" parent="1">
          <mxGeometry relative="1" as="geometry">
            <mxPoint x="399" y="100" as="targetPoint" />
          </mxGeometry>
        </mxCell>
        <mxCell id="1AK1kD9evbUtIjo_cuXa-3" value="Go to Dashboard" style="rounded=1;whiteSpace=wrap;html=1;arcSize=40;fontColor=#000000;fillColor=#ffffc0;strokeColor=#ff0000;" vertex="1" parent="1">
          <mxGeometry x="339" y="100" width="120" height="40" as="geometry" />
        </mxCell>
        <mxCell id="1AK1kD9evbUtIjo_cuXa-4" value="" style="edgeStyle=orthogonalEdgeStyle;html=1;verticalAlign=bottom;endArrow=open;endSize=8;strokeColor=#ff0000;" edge="1" source="1AK1kD9evbUtIjo_cuXa-3" parent="1">
          <mxGeometry relative="1" as="geometry">
            <mxPoint x="399" y="200" as="targetPoint" />
          </mxGeometry>
        </mxCell>
        <mxCell id="1AK1kD9evbUtIjo_cuXa-5" value="Create New Invoice" style="rounded=1;whiteSpace=wrap;html=1;arcSize=40;fontColor=#000000;fillColor=#ffffc0;strokeColor=#ff0000;" vertex="1" parent="1">
          <mxGeometry x="339" y="200" width="120" height="40" as="geometry" />
        </mxCell>
        <mxCell id="1AK1kD9evbUtIjo_cuXa-6" value="" style="edgeStyle=orthogonalEdgeStyle;html=1;verticalAlign=bottom;endArrow=open;endSize=8;strokeColor=#ff0000;" edge="1" source="1AK1kD9evbUtIjo_cuXa-5" parent="1">
          <mxGeometry relative="1" as="geometry">
            <mxPoint x="399" y="300" as="targetPoint" />
          </mxGeometry>
        </mxCell>
        <mxCell id="1AK1kD9evbUtIjo_cuXa-7" value="Fill in the&lt;br&gt;&amp;nbsp;other Expenses&lt;br&gt;(apart from COGS)" style="rounded=1;whiteSpace=wrap;html=1;arcSize=40;fontColor=#000000;fillColor=#ffffc0;strokeColor=#ff0000;" vertex="1" parent="1">
          <mxGeometry x="339" y="300" width="120" height="40" as="geometry" />
        </mxCell>
        <mxCell id="1AK1kD9evbUtIjo_cuXa-8" value="" style="edgeStyle=orthogonalEdgeStyle;html=1;verticalAlign=bottom;endArrow=open;endSize=8;strokeColor=#ff0000;" edge="1" source="1AK1kD9evbUtIjo_cuXa-7" parent="1">
          <mxGeometry relative="1" as="geometry">
            <mxPoint x="399" y="400" as="targetPoint" />
          </mxGeometry>
        </mxCell>
        <mxCell id="1AK1kD9evbUtIjo_cuXa-9" value="" style="rhombus;whiteSpace=wrap;html=1;fillColor=#ffffc0;strokeColor=#ff0000;" vertex="1" parent="1">
          <mxGeometry x="359" y="400" width="80" height="40" as="geometry" />
        </mxCell>
        <mxCell id="1AK1kD9evbUtIjo_cuXa-10" value="" style="edgeStyle=orthogonalEdgeStyle;html=1;align=left;verticalAlign=bottom;endArrow=open;endSize=8;strokeColor=#ff0000;" edge="1" source="1AK1kD9evbUtIjo_cuXa-9" parent="1">
          <mxGeometry x="-1" relative="1" as="geometry">
            <mxPoint x="460" y="320" as="targetPoint" />
            <Array as="points">
              <mxPoint x="540" y="420" />
              <mxPoint x="540" y="320" />
            </Array>
          </mxGeometry>
        </mxCell>
        <mxCell id="1AK1kD9evbUtIjo_cuXa-11" value="" style="edgeStyle=orthogonalEdgeStyle;html=1;align=left;verticalAlign=top;endArrow=open;endSize=8;strokeColor=#ff0000;" edge="1" source="1AK1kD9evbUtIjo_cuXa-9" parent="1">
          <mxGeometry x="-1" relative="1" as="geometry">
            <mxPoint x="399" y="500" as="targetPoint" />
          </mxGeometry>
        </mxCell>
        <mxCell id="1AK1kD9evbUtIjo_cuXa-12" value="Reset" style="text;html=1;align=center;verticalAlign=middle;resizable=0;points=[];autosize=1;" vertex="1" parent="1">
          <mxGeometry x="434" y="395" width="50" height="20" as="geometry" />
        </mxCell>
        <mxCell id="1AK1kD9evbUtIjo_cuXa-13" value="Submit" style="text;html=1;align=center;verticalAlign=middle;resizable=0;points=[];autosize=1;" vertex="1" parent="1">
          <mxGeometry x="354" y="450" width="50" height="20" as="geometry" />
        </mxCell>
        <mxCell id="1AK1kD9evbUtIjo_cuXa-14" value="Back to Dashboard" style="rounded=1;whiteSpace=wrap;html=1;arcSize=40;fontColor=#000000;fillColor=#ffffc0;strokeColor=#ff0000;" vertex="1" parent="1">
          <mxGeometry x="339" y="500" width="120" height="40" as="geometry" />
        </mxCell>
        <mxCell id="1AK1kD9evbUtIjo_cuXa-15" value="" style="edgeStyle=orthogonalEdgeStyle;html=1;verticalAlign=bottom;endArrow=open;endSize=8;strokeColor=#ff0000;" edge="1" source="1AK1kD9evbUtIjo_cuXa-14" parent="1">
          <mxGeometry relative="1" as="geometry">
            <mxPoint x="399" y="600" as="targetPoint" />
          </mxGeometry>
        </mxCell>
        <mxCell id="1AK1kD9evbUtIjo_cuXa-16" value="" style="ellipse;html=1;shape=endState;fillColor=#000000;strokeColor=#ff0000;" vertex="1" parent="1">
          <mxGeometry x="384" y="600" width="30" height="30" as="geometry" />
        </mxCell>
      </root>
    </mxGraphModel>
  </diagram>
</mxfile>
